<mxfile host="app.diagrams.net" agent="Mozilla/5.0 (Windows NT 10.0; Win64; x64) AppleWebKit/537.36 (KHTML, like Gecko) Chrome/131.0.0.0 Safari/537.36" version="25.0.3">
  <diagram name="Страница — 1" id="26g38Lpi_LiVlZbMlhuH">
    <mxGraphModel dx="1434" dy="746" grid="1" gridSize="10" guides="1" tooltips="1" connect="1" arrows="1" fold="1" page="1" pageScale="1" pageWidth="827" pageHeight="1169" math="0" shadow="0">
      <root>
        <mxCell id="0" />
        <mxCell id="1" parent="0" />
        <mxCell id="mzMOUxtRFe1stgDWz0tn-3" style="edgeStyle=orthogonalEdgeStyle;rounded=0;orthogonalLoop=1;jettySize=auto;html=1;" edge="1" parent="1" source="mzMOUxtRFe1stgDWz0tn-4" target="mzMOUxtRFe1stgDWz0tn-6">
          <mxGeometry relative="1" as="geometry">
            <mxPoint x="405" y="100" as="targetPoint" />
          </mxGeometry>
        </mxCell>
        <mxCell id="mzMOUxtRFe1stgDWz0tn-4" value="Начало&amp;nbsp;&lt;div&gt;GetDigit&lt;/div&gt;" style="rounded=1;whiteSpace=wrap;html=1;" vertex="1" parent="1">
          <mxGeometry x="340" y="10" width="130" height="40" as="geometry" />
        </mxCell>
        <mxCell id="mzMOUxtRFe1stgDWz0tn-5" style="edgeStyle=orthogonalEdgeStyle;rounded=0;orthogonalLoop=1;jettySize=auto;html=1;" edge="1" parent="1" source="mzMOUxtRFe1stgDWz0tn-6">
          <mxGeometry relative="1" as="geometry">
            <mxPoint x="405" y="150" as="targetPoint" />
          </mxGeometry>
        </mxCell>
        <mxCell id="mzMOUxtRFe1stgDWz0tn-6" value="Ввести num,exp" style="shape=parallelogram;perimeter=parallelogramPerimeter;whiteSpace=wrap;html=1;fixedSize=1;" vertex="1" parent="1">
          <mxGeometry x="340" y="80" width="130" height="40" as="geometry" />
        </mxCell>
        <mxCell id="mzMOUxtRFe1stgDWz0tn-7" style="edgeStyle=orthogonalEdgeStyle;rounded=0;orthogonalLoop=1;jettySize=auto;html=1;entryX=0.5;entryY=0;entryDx=0;entryDy=0;" edge="1" parent="1" source="mzMOUxtRFe1stgDWz0tn-8" target="mzMOUxtRFe1stgDWz0tn-11">
          <mxGeometry relative="1" as="geometry" />
        </mxCell>
        <mxCell id="mzMOUxtRFe1stgDWz0tn-8" value="GetDigit = (num // exp) % 10" style="rounded=0;whiteSpace=wrap;html=1;" vertex="1" parent="1">
          <mxGeometry x="320" y="150" width="150" height="40" as="geometry" />
        </mxCell>
        <mxCell id="mzMOUxtRFe1stgDWz0tn-9" value="Конец&lt;div&gt;GetDigit&lt;/div&gt;" style="rounded=1;whiteSpace=wrap;html=1;" vertex="1" parent="1">
          <mxGeometry x="320" y="280" width="150" height="40" as="geometry" />
        </mxCell>
        <mxCell id="mzMOUxtRFe1stgDWz0tn-10" style="edgeStyle=orthogonalEdgeStyle;rounded=0;orthogonalLoop=1;jettySize=auto;html=1;entryX=0.5;entryY=0;entryDx=0;entryDy=0;" edge="1" parent="1" source="mzMOUxtRFe1stgDWz0tn-11" target="mzMOUxtRFe1stgDWz0tn-9">
          <mxGeometry relative="1" as="geometry" />
        </mxCell>
        <mxCell id="mzMOUxtRFe1stgDWz0tn-11" value="Вернуть GetDigit&amp;nbsp;" style="rounded=0;whiteSpace=wrap;html=1;" vertex="1" parent="1">
          <mxGeometry x="320" y="220" width="150" height="40" as="geometry" />
        </mxCell>
        <mxCell id="mzMOUxtRFe1stgDWz0tn-12" value="" style="strokeWidth=2;html=1;shape=mxgraph.flowchart.annotation_2;align=left;labelPosition=right;pointerEvents=1;" vertex="1" parent="1">
          <mxGeometry x="470" y="80" width="50" height="40" as="geometry" />
        </mxCell>
        <mxCell id="mzMOUxtRFe1stgDWz0tn-13" value="по ссылке" style="text;html=1;align=center;verticalAlign=middle;resizable=0;points=[];autosize=1;strokeColor=none;fillColor=none;" vertex="1" parent="1">
          <mxGeometry x="490" y="85" width="80" height="30" as="geometry" />
        </mxCell>
      </root>
    </mxGraphModel>
  </diagram>
</mxfile>
